name Walk7.mot
datacolumns 19
datarows 15
range 1.45100000 1.46500000
endheader

                time	   L_ground_force_vx	   L_ground_force_vy	   L_ground_force_vz	   L_ground_force_px	   L_ground_force_py	   L_ground_force_pz	   R_ground_force_vx	   R_ground_force_vy	   R_ground_force_vz	   R_ground_force_px	   R_ground_force_py	   R_ground_force_pz	   L_ground_torque_x	   L_ground_torque_y	   L_ground_torque_z	   R_ground_torque_x	   R_ground_torque_y	   R_ground_torque_z	
          1.45100000	          0.00000000	         -0.00000003	          0.00000000	         -0.00000000	          0.00000000	         -0.00000000	        -11.07088261	         88.39102667	          9.36383570	         -0.09574949	          0.00000000	          0.10780319	          0.00000000	          0.00000000	          0.00000000	          0.00000000	          0.00972855	          0.00000000	
          1.45200000	          0.00000000	         -0.00000004	          0.00000000	         -0.00000000	          0.00000000	         -0.00000000	        -12.09489401	         95.75930974	          9.94284140	         -0.10126536	          0.00000000	          0.11407348	          0.00000000	          0.00000000	          0.00000000	          0.00000000	          0.01523084	          0.00000000	
          1.45300000	          0.00000000	         -0.00000004	          0.00000000	         -0.00000000	          0.00000000	         -0.00000000	        -13.16411090	        103.41681352	         10.53458820	         -0.10687557	          0.00000000	          0.12045532	          0.00000000	          0.00000000	          0.00000000	          0.00000000	          0.02118153	          0.00000000	
          1.45400000	          0.00000000	         -0.00000004	          0.00000001	         -0.00000000	          0.00000000	         -0.00000000	        -14.27831821	        111.35878907	         11.13781620	         -0.11256572	          0.00000000	          0.12693273	          0.00000000	          0.00000000	          0.00000000	          0.00000000	          0.02759770	          0.00000000	
          1.45500000	          0.00000000	         -0.00000004	          0.00000001	         -0.00000000	          0.00000000	         -0.00000000	        -15.43709513	        119.57887128	         11.75110100	         -0.11831975	          0.00000000	          0.13348782	          0.00000000	          0.00000000	          0.00000000	          0.00000000	          0.03449613	          0.00000000	
          1.45600000	          0.00000000	         -0.00000004	          0.00000001	         -0.00000000	          0.00000000	         -0.00000000	        -16.63979762	        128.06895505	         12.37284434	         -0.12411981	          0.00000000	          0.14010076	          0.00000000	          0.00000000	          0.00000000	          0.00000000	          0.04189312	          0.00000000	
          1.45700000	          0.00000000	         -0.00000005	          0.00000001	         -0.00000000	          0.00000000	         -0.00000000	        -17.88554044	        136.81906698	         13.00126448	         -0.12994625	          0.00000000	          0.14674960	          0.00000000	          0.00000000	          0.00000000	          0.00000000	          0.04980447	          0.00000000	
          1.45800000	          0.00000000	         -0.00000005	          0.00000001	         -0.00000000	          0.00000000	         -0.00000000	        -19.17318470	        145.81724335	         13.63438667	         -0.13577768	          0.00000000	          0.15341052	          0.00000000	          0.00000000	          0.00000000	          0.00000000	          0.05824533	          0.00000000	
          1.45900000	          0.00000000	         -0.00000005	          0.00000001	         -0.00000000	          0.00000000	         -0.00000000	        -20.50134812	        155.04944406	         14.27003397	         -0.14159189	          0.00000000	          0.16005888	          0.00000000	          0.00000000	          0.00000000	          0.00000000	          0.06723036	          0.00000000	
          1.46000000	          0.00000000	         -0.00000005	          0.00000001	         -0.00000000	          0.00000000	         -0.00000000	        -21.86844430	        164.49952489	         14.90581818	         -0.14736720	          0.00000000	          0.16667090	          0.00000000	          0.00000000	          0.00000000	          0.00000000	          0.07677404	          0.00000000	
          1.46100000	          0.00000000	         -0.00000006	          0.00000001	         -0.00000000	          0.00000000	         -0.00000000	        -23.27273676	        174.14926436	         15.53913073	         -0.15308340	          0.00000000	          0.17322477	          0.00000000	          0.00000000	          0.00000000	          0.00000000	          0.08689119	          0.00000000	
          1.46200000	          0.00000000	         -0.00000006	          0.00000001	         -0.00000000	          0.00000000	         -0.00000000	        -24.71239799	        183.97845013	         16.16713358	         -0.15872199	          0.00000000	          0.17970086	          0.00000000	          0.00000000	          0.00000000	          0.00000000	          0.09759751	          0.00000000	
          1.46300000	          0.00000001	         -0.00000006	          0.00000001	         -0.00000000	          0.00000000	         -0.00000000	        -26.18557633	        193.96505057	         16.78675150	         -0.16426615	          0.00000000	          0.18608155	          0.00000000	          0.00000000	          0.00000000	          0.00000000	          0.10891017	          0.00000000	
          1.46400000	          0.00000001	         -0.00000006	          0.00000001	         -0.00000000	          0.00000000	         -0.00000000	        -27.69047068	        204.08549274	         17.39466774	         -0.16970070	          0.00000000	          0.19235118	          0.00000000	          0.00000000	          0.00000000	          0.00000000	          0.12084841	          0.00000000	
          1.46500000	          0.00000001	         -0.00000007	          0.00000001	         -0.00000000	          0.00000000	         -0.00000000	        -29.22540616	        214.31505170	         17.98732506	         -0.17501205	          0.00000000	          0.19849591	          0.00000000	          0.00000000	          0.00000000	          0.00000000	          0.13343438	          0.00000000	
